<svg xmlns="http://www.w3.org/2000/svg" width="200" height="62" viewBox="0 0 200 62" fill="none"><g clip-path="url(#clip0_30439_4318)"><path d="M28.0046 55.6585C26.7647 56.3766 25.2353 56.3766 23.9954 55.6585L5.47105 44.9301C4.85356 44.5725 4.47338 43.913 4.47338 43.1994V28.7145C4.47338 27.1761 6.13756 26.2137 7.47089 26.981L32.9835 41.6618C34.3178 42.4297 34.3207 44.354 32.9886 45.1258L28.1441 47.9328C26.9023 48.6524 25.3702 48.6514 24.1292 47.9304L10.6788 40.1156C9.34551 39.3409 7.67409 40.3028 7.67409 41.8449V42.3941C7.67409 43.1065 8.05305 43.7651 8.66896 44.1232L24.1293 53.1104C25.3702 53.8317 26.9025 53.8329 28.1445 53.1135L41.9491 45.1171C43.2811 44.3455 43.2786 42.4213 41.9444 41.6532L4.47338 20.081L3.02524 19.2164C1.69212 18.4205 0 19.381 0 20.9337V45.791C0 46.5046 0.38022 47.1641 0.997759 47.5217L23.9955 60.8392C25.2354 61.5572 26.7646 61.5572 28.0045 60.8391L48.7009 48.8537C50.0545 48.0698 50.0249 46.1056 48.6484 45.3628L48.1492 45.0935C47.5376 44.7635 46.7985 44.7746 46.1971 45.1229L28.0046 55.6585Z" fill="#121216"></path><path d="M28.0047 1.16112C26.7647 0.442921 25.2353 0.442923 23.9952 1.16112L3.811 12.8515C2.48965 13.6168 2.47872 15.5208 3.79121 16.3012L4.26671 16.584C4.88962 16.9544 5.66416 16.9588 6.29128 16.5956L23.9951 6.34176C25.2352 5.62351 26.7648 5.62356 28.0048 6.34189L46.5291 17.0725C47.1465 17.4302 47.5266 18.0896 47.5266 18.8032V33.049C47.5266 34.5902 45.8569 35.5522 44.5236 34.7793L19.2693 20.1395C17.9398 19.3689 17.9401 17.4491 19.2697 16.6787L24.1523 13.8499C25.3824 13.1371 26.8985 13.1309 28.1344 13.8336L41.5577 21.4648C42.891 22.2228 44.5462 21.2598 44.5462 19.7261V19.2063C44.5462 18.4887 44.1617 17.8262 43.5388 17.47L28.1341 8.66348C26.8971 7.95631 25.3773 7.96056 24.1442 8.67465L10.3279 16.6761C8.99587 17.4476 8.9981 19.3716 10.3319 20.1399L49.0017 42.4152C50.335 43.1832 52 42.2209 52 40.6821V16.2116C52 15.4981 51.6198 14.8386 51.0024 14.4809L28.0047 1.16112Z" fill="#121216"></path></g><path d="M76.2948 44.441C74.3418 44.441 72.5842 44.1097 71.0218 43.4472C69.4595 42.7571 68.2319 41.7909 67.3392 40.5487C66.4464 39.3064 66 37.8572 66 36.2008H71.1055C71.2171 37.4431 71.7054 38.4645 72.5702 39.265C73.463 40.0656 74.7045 40.4659 76.2948 40.4659C77.9408 40.4659 79.2242 40.0794 80.1448 39.3064C81.0655 38.5059 81.5258 37.4845 81.5258 36.2422C81.5258 35.2761 81.2329 34.4893 80.647 33.882C80.089 33.2747 79.3776 32.8054 78.5127 32.4741C77.6758 32.1429 76.504 31.784 74.9974 31.3975C73.1003 30.9006 71.5519 30.4037 70.3523 29.9068C69.1805 29.3823 68.1761 28.5818 67.3392 27.5052C66.5022 26.4286 66.0837 24.9931 66.0837 23.1988C66.0837 21.5424 66.5022 20.0932 67.3392 18.8509C68.1761 17.6087 69.3479 16.6563 70.8544 15.9938C72.361 15.3313 74.1047 15 76.0855 15C78.9033 15 81.205 15.7039 82.9905 17.1118C84.804 18.4921 85.8083 20.3968 86.0036 22.8261H80.7307C80.647 21.7771 80.1448 20.8799 79.2242 20.1346C78.3035 19.3892 77.0899 19.0166 75.5833 19.0166C74.2163 19.0166 73.1003 19.3616 72.2354 20.0518C71.3706 20.7419 70.9381 21.7357 70.9381 23.0331C70.9381 23.9165 71.2032 24.648 71.7333 25.2277C72.2912 25.7799 72.9887 26.2215 73.8257 26.5528C74.6627 26.8841 75.8065 27.2429 77.2573 27.6294C79.1823 28.1539 80.7447 28.6784 81.9443 29.2029C83.1719 29.7274 84.2041 30.5418 85.0411 31.646C85.906 32.7226 86.3384 34.1719 86.3384 35.9938C86.3384 37.4569 85.9339 38.8371 85.1248 40.1346C84.3436 41.432 83.1858 42.481 81.6514 43.2816C80.1448 44.0545 78.3593 44.441 76.2948 44.441Z" fill="#121216"></path><path d="M109.929 24.7571C110.738 23.7081 111.84 22.8248 113.235 22.107C114.63 21.3893 116.207 21.0304 117.964 21.0304C119.973 21.0304 121.8 21.5273 123.446 22.5211C125.12 23.4873 126.432 24.8538 127.38 26.6205C128.329 28.3872 128.803 30.4162 128.803 32.7075C128.803 34.9987 128.329 37.0553 127.38 38.8772C126.432 40.6716 125.12 42.0794 123.446 43.1008C121.8 44.0946 119.973 44.5915 117.964 44.5915C116.207 44.5915 114.644 44.2464 113.277 43.5563C111.91 42.8386 110.794 41.9552 109.929 40.9062V55.0677H105.159V21.4031H109.929V24.7571ZM123.949 32.7075C123.949 31.134 123.614 29.7813 122.944 28.6495C122.303 27.4901 121.438 26.6205 120.35 26.0408C119.289 25.4335 118.146 25.1298 116.918 25.1298C115.718 25.1298 114.574 25.4335 113.486 26.0408C112.426 26.6481 111.561 27.5315 110.892 28.6909C110.25 29.8503 109.929 31.2168 109.929 32.7903C109.929 34.3638 110.25 35.744 110.892 36.9311C111.561 38.0905 112.426 38.9739 113.486 39.5812C114.574 40.1885 115.718 40.4921 116.918 40.4921C118.146 40.4921 119.289 40.1885 120.35 39.5812C121.438 38.9462 122.303 38.0353 122.944 36.8482C123.614 35.6612 123.949 34.281 123.949 32.7075Z" fill="#121216"></path><path d="M129.001 32.7075C129.001 32.7075 129.475 28.3872 130.424 26.6205C131.4 24.8538 132.712 23.4873 134.358 22.5211C136.032 21.5273 137.873 21.0304 139.882 21.0304C141.695 21.0304 143.271 21.3893 144.611 22.107C145.978 22.7972 147.066 23.6667 147.875 24.7157V21.4031H152.687V44.2188H147.875V40.8234C147.066 41.9 145.964 42.7972 144.569 43.5149C143.174 44.2326 141.584 44.5915 139.798 44.5915C137.817 44.5915 136.004 44.0946 134.358 43.1008C132.712 42.0794 131.4 40.6716 130.424 38.8772C129.475 37.0553 129.001 32.7075 129.001 32.7075ZM147.875 32.7903C147.875 31.2168 147.54 29.8503 146.87 28.6909C146.229 27.5315 145.378 26.6481 144.318 26.0408C143.258 25.4335 142.114 25.1298 140.886 25.1298C139.659 25.1298 138.515 25.4335 137.455 26.0408C136.394 26.6205 135.529 27.4901 134.86 28.6495C134.218 29.7813 133.897 31.134 133.897 32.7075C133.897 34.281 134.218 35.6612 134.86 36.8482C135.529 38.0353 136.394 38.9462 137.455 39.5812C138.543 40.1885 139.686 40.4921 140.886 40.4921C142.114 40.4921 143.258 40.1885 144.318 39.5812C145.378 38.9739 146.229 38.0905 146.87 36.9311C147.54 35.744 147.875 34.3638 147.875 32.7903Z" fill="#121216"></path><path d="M86.2848 32.556C86.2848 32.556 86.7591 28.2358 87.7077 26.4691C88.6841 24.7023 89.9954 23.3359 91.6414 22.3697C93.3154 21.3759 95.1567 20.879 97.1655 20.879C98.9789 20.879 100.555 21.2379 101.894 21.9556C103.261 22.6457 104.349 23.5153 105.159 24.5643V40.672C104.349 41.7486 103.247 42.6457 101.852 43.3635C100.458 44.0812 98.8673 44.4401 97.0818 44.4401C95.1009 44.4401 93.2875 43.9432 91.6414 42.9494C89.9954 41.928 88.6841 40.5201 87.7077 38.7258C86.7591 36.9038 86.2848 32.556 86.2848 32.556ZM105.159 32.6388C105.159 31.0653 104.824 29.6989 104.154 28.5395C103.512 27.38 102.662 26.4967 101.601 25.8894C100.541 25.282 99.3974 24.9784 98.1698 24.9784C96.9423 24.9784 95.7984 25.282 94.7382 25.8894C93.6781 26.4691 92.8132 27.3386 92.1436 28.498C91.5019 29.6299 91.1811 30.9825 91.1811 32.556C91.1811 34.1295 91.5019 35.5098 92.1436 36.6968C92.8132 37.8838 93.6781 38.7948 94.7382 39.4297C95.8263 40.037 96.9702 40.3407 98.1698 40.3407C99.3974 40.3407 100.541 40.037 101.601 39.4297C102.662 38.8224 103.512 37.939 104.154 36.7796C104.824 35.5926 105.159 34.2123 105.159 32.6388Z" fill="#121216"></path><defs><clipPath id="clip0_30439_4318"><rect width="52" height="62" fill="white"></rect></clipPath></defs></svg>